<?xml version="1.0" encoding="utf-8"?>
<!-- Generator: Adobe Illustrator 16.0.3, SVG Export Plug-In . SVG Version: 6.00 Build 0)  -->
<!DOCTYPE svg PUBLIC "-//W3C//DTD SVG 1.1//EN" "http://www.w3.org/Graphics/SVG/1.1/DTD/svg11.dtd">
<svg version="1.1" id="Layer_1" xmlns="http://www.w3.org/2000/svg" xmlns:xlink="http://www.w3.org/1999/xlink" x="0px" y="0px"
	 width="501.676px" height="560.371px" viewBox="0 0 501.676 560.371" enable-background="new 0 0 501.676 560.371"
	 xml:space="preserve">
<g>
	<path fill="#FFFFFF" d="M235.844,108.436c-69.239,0-125.368,56.098-125.368,125.295c0,69.196,56.129,125.296,125.368,125.296
		s125.368-56.1,125.368-125.296C361.211,164.535,305.083,108.436,235.844,108.436z M235.989,321.507
		c-48.586,0-87.978-39.365-87.978-87.922c0-48.563,39.391-87.928,87.978-87.928c48.587,0,87.976,39.366,87.976,87.928
		C323.965,282.142,284.577,321.507,235.989,321.507z"/>
	<path fill="#FFFFFF" d="M420.45,376.607c0,0,49.555-52.313,49.555-144.197C470.004,140.532,398.93,0,237.455,0
		S1.677,133.935,1.677,239.444c0,105.511,0.884,320.048,0.884,320.048h137.243v-113.42c0,0,42.31,21.979,96.773,21.979
		c54.462,0,71.261-12.311,71.261-12.311l88.27,104.631l105.568-89.977L420.45,376.607z M241.266,435.226
		c-95.507,0-134.013-46.309-134.013-46.309v135.988H34.228c0,0,0.296-177.311,0.296-296.306
		c0-118.989,103.026-196.655,202.053-196.655c99.027,0,201.464,79.568,201.464,200.174
		C438.042,352.718,336.78,435.226,241.266,435.226z"/>
</g>
</svg>
